# xmcd CD database file
#
# Track frame offsets:
#	150
#	19164
#	33016
#	62717
#	79105
#	100485
#	126578
#	141396
#	164564
#	182729
#	199349
#	219907
#	243059
#	264384
#
# Disc length: 3707 seconds
#
# Revision: 1
# Processed by: cddbd v1.5.1PL2 Copyright (c) Steve Scherf et al.
# Submitted via: CDex 1.51
#
DISCID=c80e790e
DTITLE=Celestial Navigations - Romance
DYEAR=2006
DGENRE=New Age
TTITLE0=There was a Time
TTITLE1=Valentine
TTITLE2=War Babies
TTITLE3=Mellow Hearts
TTITLE4=The Window
TTITLE5=The Intersection
TTITLE6=The Connection
TTITLE7=Ice Princess
TTITLE8=Sweet Nites
TTITLE9=Maggie
TTITLE10=Back Porch
TTITLE11=Girl Who Rides Horses
TTITLE12=Endless Love
TTITLE13=Valentine (Instrumental)
EXTD=YEAR: 2006
EXTT0=
EXTT1=
EXTT2=
EXTT3=
EXTT4=
EXTT5=
EXTT6=
EXTT7=
EXTT8=
EXTT9=
EXTT10=
EXTT11=
EXTT12=
EXTT13=
PLAYORDER=
